# xmcd
#
# Track frame offsets:
#   150
#   22887
#   39458
#   53772
#   69121
#   98985
#   107013
#   127272
#   153806
#   166964
#   179079
#   198904
#   215603
#   235751
#   250788
#   267595
#   290623
#
# Disc length: 4149 seconds
#
# Revision: 0
# Processed by: cddbd v1.5.2PL0 Copyright (c) Steve Scherf et al.
# Submitted via: GXTranscoder 2.0.1939
#
DISCID=f0103311
DTITLE=Emanon - The Waiting Room
DYEAR=2006
DGENRE=Hip Hop
TTITLE0=count your blessings
TTITLE1=words
TTITLE2=more than you know
TTITLE3=pseudo
TTITLE4=make music
TTITLE5=world don't sing
TTITLE6=politician
TTITLE7=waiting room
TTITLE8=four square
TTITLE9=story
TTITLE10=ahh oua1
TTITLE11=not what it seems
TTITLE12=six million ways
TTITLE13=she thinks
TTITLE14=farewell
TTITLE15=aloe blacc 1
TTITLE16=aloe blacc 2
EXTD=
EXTT0=
EXTT1=
EXTT2=
EXTT3=
EXTT4=
EXTT5=
EXTT6=
EXTT7=
EXTT8=
EXTT9=
EXTT10=
EXTT11=
EXTT12=
EXTT13=
EXTT14=
EXTT15=
EXTT16=
PLAYORDER=
